<svg xmlns="http://www.w3.org/2000/svg" viewBox="0 0 530.45 202.1"><defs><style>.cls-1,.cls-2{fill:#fff;}.cls-2{stroke:#f2f2f2;stroke-miterlimit:10;stroke-width:2px;}</style></defs><g id="Layer_2" data-name="Layer 2"><g id="Layer_1-2" data-name="Layer 1"><path class="cls-1" d="M30.22,101.05l-9.77-9.77a7.54,7.54,0,0,0-10.67,0L0,101.05l9.78,9.78a7.54,7.54,0,0,0,10.67,0Z"/><path class="cls-1" d="M192.33,91.28a7.54,7.54,0,0,0-10.67,0l-9.78,9.77,9.78,9.78a7.54,7.54,0,0,0,10.67,0l9.77-9.78Z"/><path class="cls-1" d="M101.05,30.22l9.78-9.77a7.54,7.54,0,0,0,0-10.67L101.05,0,91.28,9.78a7.54,7.54,0,0,0,0,10.67Z"/><path class="cls-1" d="M101.05,171.88l-9.77,9.78a7.54,7.54,0,0,0,0,10.67l9.77,9.77,9.78-9.77a7.54,7.54,0,0,0,0-10.67Z"/><path class="cls-1" d="M45.47,133.06a12.79,12.79,0,0,0-3.75,9.05v19.08H60.8a12.8,12.8,0,0,0,12.81-12.8V129.31H54.53A12.78,12.78,0,0,0,45.47,133.06ZM63.1,148.39a2.3,2.3,0,0,1-2.3,2.29H52.23v-8.57a2.3,2.3,0,0,1,2.3-2.29H63.1Z"/><path class="cls-1" d="M156.65,69.05a12.74,12.74,0,0,0,3.74-9V40.93H141.31a12.8,12.8,0,0,0-12.8,12.8V72.81h19.08A12.76,12.76,0,0,0,156.65,69.05ZM139,53.73a2.29,2.29,0,0,1,.67-1.62,2.25,2.25,0,0,1,1.62-.67h8.57V60a2.29,2.29,0,0,1-2.29,2.29H139Z"/><path class="cls-1" d="M147.58,105.6H97.23V96.43h50.38A36.41,36.41,0,0,0,184,60V17.31l-42.71,0a36.49,36.49,0,0,0-36.44,36.44v23h10.51v-23A26,26,0,0,1,141.31,27.8h32.2V60A25.9,25.9,0,0,1,147.6,85.92H97.23V84h0V53.73A36.49,36.49,0,0,0,60.79,17.29l-42.71,0V60A36.41,36.41,0,0,0,54.49,96.43H77.54V85.92h-23A25.9,25.9,0,0,1,28.59,60V27.81h32.2A26,26,0,0,1,86.72,53.73V91.17h0v57.21A25.9,25.9,0,0,1,60.81,174.3H28.6V142.11a26,26,0,0,1,25.94-25.93h23V105.68h-23a36.49,36.49,0,0,0-36.45,36.44l0,42.7H60.81a36.4,36.4,0,0,0,36.42-36.44V116.12h50.35A26,26,0,0,1,173.51,142v32.2H141.28a25.91,25.91,0,0,1-25.9-25.93v-23H104.87v23a36.41,36.41,0,0,0,36.41,36.44H184l0-42.7A36.48,36.48,0,0,0,147.58,105.6Z"/><path class="cls-1" d="M160.38,161.12V142a12.79,12.79,0,0,0-12.8-12.8H128.5v19.07a12.8,12.8,0,0,0,12.8,12.81ZM139,148.31v-8.57h8.57a2.25,2.25,0,0,1,1.62.68h0a2.27,2.27,0,0,1,.67,1.62v8.57H141.3a2.23,2.23,0,0,1-1.62-.68A2.21,2.21,0,0,1,139,148.31Z"/><path class="cls-1" d="M41.71,40.93V60a12.8,12.8,0,0,0,12.8,12.8H73.59V53.73a12.8,12.8,0,0,0-12.8-12.8Zm21.37,12.8V62.3H54.51A2.29,2.29,0,0,1,52.22,60V51.44h8.57a2.24,2.24,0,0,1,1.61.66A2.28,2.28,0,0,1,63.08,53.73Z"/><path class="cls-1" d="M280.18,76.43a25.54,25.54,0,0,1,8.27,2.18,27.09,27.09,0,0,1,7.25,4.71,22.8,22.8,0,0,1,5.13,6.76,18.44,18.44,0,0,1,1.93,8.33,27.28,27.28,0,0,1-1.63,10,20.71,20.71,0,0,1-4.41,7,21.52,21.52,0,0,1-6.46,4.53,38,38,0,0,1-7.78,2.59,52.09,52.09,0,0,1-8.45,1.15q-4.35.24-8.46.24H233.46V39.37h39.72a58.43,58.43,0,0,1,8,.61,26,26,0,0,1,8.33,2.59,17.38,17.38,0,0,1,6.52,5.79q2.6,3.81,2.59,10.21a16.08,16.08,0,0,1-6.82,14.06,18.68,18.68,0,0,1-6,2.84A28.12,28.12,0,0,1,280.18,76.43Zm-31.63-5.31A4.57,4.57,0,0,0,253.38,76H265a29,29,0,0,0,7.55-.9,14.23,14.23,0,0,0,5.67-3,12.65,12.65,0,0,0,3.56-5.44A24.77,24.77,0,0,0,283,58.32a22.71,22.71,0,0,0-1.27-8.2,13.12,13.12,0,0,0-3.44-5.2,12.48,12.48,0,0,0-5-2.71,21.56,21.56,0,0,0-5.85-.79H256.16a7.87,7.87,0,0,0-5.5,1.93,7.18,7.18,0,0,0-2.11,5.56ZM253.38,78a4.57,4.57,0,0,0-4.83,4.83v31.51a7.56,7.56,0,0,0,1.93,5.5,6.63,6.63,0,0,0,5,2h10.14q11-.12,16.18-6.16t5.19-17a34.22,34.22,0,0,0-1-8.39,16.1,16.1,0,0,0-3.26-6.52,15.24,15.24,0,0,0-6-4.23A24.2,24.2,0,0,0,267.63,78Z"/><path class="cls-1" d="M332.22,114.34a7.56,7.56,0,0,0,1.93,5.5,6.63,6.63,0,0,0,5,2h7.12L368.31,114v9.9H317.13V39.37h51.18v9.9l-22.09-7.85h-6.4a8,8,0,0,0-5.49,1.87,7.13,7.13,0,0,0-2.11,5.62V75.83a3.33,3.33,0,0,0,3.62,3.62h29.94v2.17H335.84a3.34,3.34,0,0,0-3.62,3.63Z"/><path class="cls-1" d="M399.94,114.34a7.56,7.56,0,0,0,1.94,5.5,6.6,6.6,0,0,0,4.95,2H414L436,114v9.9H384.85V39.37h15.09Z"/><path class="cls-1" d="M485.42,124.85a54.62,54.62,0,0,1-19.68-3.26,39,39,0,0,1-14.06-9A37.17,37.17,0,0,1,443.23,99a51,51,0,0,1-2.84-17.33,51,51,0,0,1,2.84-17.32,37.17,37.17,0,0,1,8.45-13.64,39.11,39.11,0,0,1,14.06-9,61.57,61.57,0,0,1,39.48,0,39.16,39.16,0,0,1,14.07,9,36.64,36.64,0,0,1,8.39,13.64,52,52,0,0,1,2.77,17.32A51,51,0,0,1,527.62,99a37.3,37.3,0,0,1-8.45,13.64,39.11,39.11,0,0,1-14.07,9A54.55,54.55,0,0,1,485.42,124.85Zm0-2.18q8.7,0,14.31-3.5a26.66,26.66,0,0,0,9-9.23,39.55,39.55,0,0,0,4.71-13.16,86.13,86.13,0,0,0,1.33-15.27,81.6,81.6,0,0,0-1.39-15.22,39.46,39.46,0,0,0-4.77-13,26.14,26.14,0,0,0-9.05-9.11q-5.69-3.44-14.13-3.44t-14.18,3.44a25.75,25.75,0,0,0-8.94,9.11,40.78,40.78,0,0,0-4.71,13,82.46,82.46,0,0,0-1.38,15.22,87.79,87.79,0,0,0,1.32,15.39,40.32,40.32,0,0,0,4.65,13.16,25.67,25.67,0,0,0,8.94,9.17Q476.73,122.68,485.42,122.67Z"/><path class="cls-1" d="M329.77,151.77a6.64,6.64,0,0,0-4.63-1.9c-3.71,0-6.21,2.74-6.21,6.5a6.15,6.15,0,0,0,6.24,6.39,6.73,6.73,0,0,0,4.6-2v3.1a9.32,9.32,0,0,1-4.68,1.28,8.51,8.51,0,0,1-6-2.36,8.34,8.34,0,0,1-2.74-6.44,8.87,8.87,0,0,1,2.74-6.67,8.41,8.41,0,0,1,6.16-2.23,8.07,8.07,0,0,1,4.55,1.23Z"/><path class="cls-1" d="M352.2,156.32a8.87,8.87,0,1,1-8.87-8.85A8.65,8.65,0,0,1,352.2,156.32Zm-2.6,0a6.27,6.27,0,1,0-6.27,6.44A6.11,6.11,0,0,0,349.6,156.32Z"/><path class="cls-1" d="M365.66,151.56a2.62,2.62,0,0,0-.77-1.07,2.69,2.69,0,0,0-1.84-.62,2.12,2.12,0,0,0-2.4,2c0,.51.18,1.41,1.84,2.07l1.71.69c3.15,1.28,4,3.07,4,5a5.26,5.26,0,0,1-5.5,5.48,5,5,0,0,1-4-1.72,5.58,5.58,0,0,1-1.44-3.32l2.59-.56a3.68,3.68,0,0,0,.71,2.17,2.71,2.71,0,0,0,2.23,1,2.74,2.74,0,0,0,2.81-2.86c0-1.74-1.33-2.46-2.45-2.92l-1.64-.69c-1.41-.58-3.48-1.76-3.48-4.32,0-2.3,1.79-4.5,5-4.5a5,5,0,0,1,3.42,1.15,5.85,5.85,0,0,1,1.31,1.72Z"/><path class="cls-1" d="M373.26,164.83l3.58-18.33,5.93,13.24,6-13.24L392,164.83h-2.66l-1.74-10.28-5,11.08-4.91-11.1-1.79,10.3Z"/><path class="cls-1" d="M407.79,150.23H401v4.32h6.6V157H401v5.37h6.8v2.45h-9.41V147.78h9.41Z"/><path class="cls-1" d="M418.72,150.23v14.6h-2.61v-14.6H412.2v-2.45h10.43v2.45Z"/><path class="cls-1" d="M430.35,147.78v17.05h-2.6V147.78Z"/><path class="cls-1" d="M449.89,151.77a6.62,6.62,0,0,0-4.62-1.9c-3.71,0-6.22,2.74-6.22,6.5a6.15,6.15,0,0,0,6.24,6.39,6.71,6.71,0,0,0,4.6-2v3.1a9.32,9.32,0,0,1-4.67,1.28,8.54,8.54,0,0,1-6-2.36,8.34,8.34,0,0,1-2.74-6.44,8.91,8.91,0,0,1,2.74-6.67,8.41,8.41,0,0,1,6.16-2.23,8.07,8.07,0,0,1,4.55,1.23Z"/><line class="cls-2" x1="301.46" y1="156.67" x2="233.46" y2="156.67"/><path class="cls-1" d="M299.3,153.95h3.89a1.55,1.55,0,0,1,1.55,1.55v3.89a0,0,0,0,1,0,0h-3.89a1.55,1.55,0,0,1-1.55-1.55v-3.89A0,0,0,0,1,299.3,153.95Z" transform="translate(626.37 53.88) rotate(135)"/><line class="cls-2" x1="462.46" y1="156.67" x2="530.45" y2="156.67"/><path class="cls-1" d="M460.72,153.95h3.89a0,0,0,0,1,0,0v3.89a1.55,1.55,0,0,1-1.55,1.55h-3.89a0,0,0,0,1,0,0V155.5A1.55,1.55,0,0,1,460.72,153.95Z" transform="translate(246.07 -280.72) rotate(45)"/></g></g></svg>