<svg xmlns="http://www.w3.org/2000/svg" viewBox="0 0 449.88 321.75"><defs><style>.cls-1{fill:#fff;}</style></defs><g id="Layer_2" data-name="Layer 2"><g id="Layer_1-2" data-name="Layer 1"><path class="cls-1" d="M145.75,184.39a2.1,2.1,0,0,0-1.56-3.42l-7.86-.23a2.16,2.16,0,0,1-1.7-1l-4.25-6.62a2.09,2.09,0,0,0-3.73.4L124,181a2.07,2.07,0,0,1-1.44,1.33l-7.61,2a2.08,2.08,0,0,0-.77,3.65l6.23,4.84a2.05,2.05,0,0,1,.82,1.75l-.46,7.87a2.09,2.09,0,0,0,3.26,1.86l6.51-4.44a2,2,0,0,1,1.92-.22l7.36,2.85a2.08,2.08,0,0,0,2.77-2.51l-2.21-7.56a2,2,0,0,1,.4-1.92Zm0,0a2.1,2.1,0,0,0-1.56-3.42l-7.86-.23a2.16,2.16,0,0,1-1.7-1l-4.25-6.62a2.09,2.09,0,0,0-3.73.4L124,181a2.07,2.07,0,0,1-1.44,1.33l-7.61,2a2.08,2.08,0,0,0-.77,3.65l6.23,4.84a2.05,2.05,0,0,1,.82,1.75l-.46,7.87a2.09,2.09,0,0,0,3.26,1.86l6.51-4.44a2,2,0,0,1,1.92-.22l7.36,2.85a2.08,2.08,0,0,0,2.77-2.51l-2.21-7.56a2,2,0,0,1,.4-1.92Zm0,0a2.1,2.1,0,0,0-1.56-3.42l-7.86-.23a2.16,2.16,0,0,1-1.7-1l-4.25-6.62a2.09,2.09,0,0,0-3.73.4L124,181a2.07,2.07,0,0,1-1.44,1.33l-7.61,2a2.08,2.08,0,0,0-.77,3.65l6.23,4.84a2.05,2.05,0,0,1,.82,1.75l-.46,7.87a2.09,2.09,0,0,0,3.26,1.86l6.51-4.44a2,2,0,0,1,1.92-.22l7.36,2.85a2.08,2.08,0,0,0,2.77-2.51l-2.21-7.56a2,2,0,0,1,.4-1.92Zm0,0a2.1,2.1,0,0,0-1.56-3.42l-7.86-.23a2.16,2.16,0,0,1-1.7-1l-4.25-6.62a2.09,2.09,0,0,0-3.73.4L124,181a2.07,2.07,0,0,1-1.44,1.33l-7.61,2a2.08,2.08,0,0,0-.77,3.65l6.23,4.84a2.05,2.05,0,0,1,.82,1.75l-.46,7.87a2.09,2.09,0,0,0,3.26,1.86l6.51-4.44a2,2,0,0,1,1.92-.22l7.36,2.85a2.08,2.08,0,0,0,2.77-2.51l-2.21-7.56a2,2,0,0,1,.4-1.92Zm303.09-35a32.37,32.37,0,0,0-5.46-11,37.89,37.89,0,0,0-8.27-7.84,34.28,34.28,0,0,0-3.93-2.32,37.09,37.09,0,0,0,3.09-14.85,37.52,37.52,0,0,0-75,0v.25a32.86,32.86,0,0,0-6,.71,37.81,37.81,0,0,0-8.91,3.2L243.9,70.88a37.75,37.75,0,1,0-55.85-33.11,9.9,9.9,0,1,0,19.8,0,18,18,0,1,1,17.94,17.94,9.91,9.91,0,0,0-9.9,9.9V73.4a9.87,9.87,0,0,0,5.74,9l108.2,50.26a29.64,29.64,0,0,0-1.39,3.87,28,28,0,0,0-4,.37l-39.08,6.54c-.53.08-1,.22-1.52.33-.37-.67-.74-1.35-1.16-2-4.16-6.36-11.1-10.13-20.55-11.23a40.67,40.67,0,0,0-4.86-.31,30.21,30.21,0,0,0-12.59,2.58,38.18,38.18,0,0,0-11.55,8.2l-8.6,8.83-6.42-10.47a39.32,39.32,0,0,0-9.45-10.78c-4.42-3.42-10.13-5.49-17.46-6.37a46.17,46.17,0,0,0-4.72-.28c-9.26,0-14.89,3.71-18,6.79-4.61,4.58-7.33,11.09-8.38,19.92l-.42,3.71a47.09,47.09,0,0,0-4.75-3.48,46.43,46.43,0,0,0-17.32-6.48,50.6,50.6,0,0,0-7.41-.57,45.24,45.24,0,0,0-18.9,4.1,32.58,32.58,0,0,0-.51-4.58,32.94,32.94,0,0,0-1-4l87-42.08a9.9,9.9,0,1,0-8.63-17.82L99.69,120.22a12.09,12.09,0,0,0-1.62,1,30.73,30.73,0,0,0-10.55-4.84,29.94,29.94,0,0,0-7-.79,34.19,34.19,0,0,0-6.68.65L64.29,118c-12.48,2.38-23.31,6.71-32.2,12.88A72.88,72.88,0,0,0,11,153a75.12,75.12,0,0,0-9.9,27.08,80.92,80.92,0,0,0,.4,28.24,82.52,82.52,0,0,0,9.62,25.92A70.34,70.34,0,0,0,29.91,255.5a73.3,73.3,0,0,0,26.74,12.33,70.69,70.69,0,0,0,16.78,2,88.33,88.33,0,0,0,16.69-1.65l12.23-2.32c12.3-2.34,18.41-9.28,21.39-14.71a32.68,32.68,0,0,0,4.1-16.58c.88.06,1.72.11,2.57.11a45.89,45.89,0,0,0,21.31-5.29,25.64,25.64,0,0,0,6.53,13.92,28.92,28.92,0,0,0,18.17,9.23,33.33,33.33,0,0,0,3.73.22,28.69,28.69,0,0,0,16.27-4.95c4.56-3.08,10.3-9.05,11.58-20.06l1-8.2a21.79,21.79,0,0,0,6.39,1.75,19.86,19.86,0,0,0,2.55.17,20.73,20.73,0,0,0,4.78-.54l-1,8.41c-1.27,11,2.91,18.16,6.65,22.18a28.93,28.93,0,0,0,18.19,9.22,32.41,32.41,0,0,0,3.68.2,28.83,28.83,0,0,0,16.3-4.95,25.94,25.94,0,0,0,10.38-14.46,23.44,23.44,0,0,0,8.86,9.68A25.9,25.9,0,0,0,299.36,255a28.11,28.11,0,0,0,4.55-.37A26.37,26.37,0,0,0,320,245.45c3.23-3.87,6.77-10.58,5.1-20.48l-.77-4.61,8.07-1.36a26.42,26.42,0,0,0,11.82-4.95l-3.79,19.09c-2.37,12.06,1.56,20.23,5.29,25a33.58,33.58,0,0,0,26.06,12.42,31.7,31.7,0,0,0,15.73-4.16c5.27-3,12-9,14.41-21l6.39-32.26,32.94-35.34a31.7,31.7,0,0,0,8.12-15.25,28.85,28.85,0,0,0-.51-13.12M111.34,245c-2.2,4-6.08,6.54-11.65,7.58l-12.23,2.32Q72.4,257.77,60,254.73a58.89,58.89,0,0,1-21.62-9.93,55.86,55.86,0,0,1-15-17A68.17,68.17,0,0,1,15,183a61.58,61.58,0,0,1,8.06-22,58.41,58.41,0,0,1,17.09-17.8q10.92-7.56,26.8-10.58l9.56-1.84a18.06,18.06,0,0,1,7.73,0,15.59,15.59,0,0,1,6,2.85,17.58,17.58,0,0,1,4.3,4.87A18.82,18.82,0,0,1,97,151.15a17.94,17.94,0,0,1-2.21,6.11,15.6,15.6,0,0,1-4.58,4.87A18.06,18.06,0,0,1,83,165L70.8,167.3a31.52,31.52,0,0,0-11.89,4.59,26.45,26.45,0,0,0-7.61,7.67,25,25,0,0,0-3.68,9.56,30.17,30.17,0,0,0,.15,10.21A29.86,29.86,0,0,0,51.42,209a24.34,24.34,0,0,0,6.93,7.64,27.22,27.22,0,0,0,9.93,4.44,29.57,29.57,0,0,0,12.56.06l12.42-2.38a18.79,18.79,0,0,1,7.7,0,16,16,0,0,1,10.24,7.78,20.27,20.27,0,0,1,2.18,5.92,18.39,18.39,0,0,1-2,12.53m50.88-51a32.23,32.23,0,0,1-4.47,12,32.62,32.62,0,0,1-8.46,9,33.34,33.34,0,0,1-11.24,5.15,31.68,31.68,0,0,1-12.81.54,31.12,31.12,0,0,1-12-4.48A31.8,31.8,0,0,1,99,196.65,32.48,32.48,0,0,1,103,171.83a33,33,0,0,1,8.4-9.08,32,32,0,0,1,24-5.77,31.43,31.43,0,0,1,12,4.5,32.26,32.26,0,0,1,9.08,8.43,32.8,32.8,0,0,1,5.21,11.26,32,32,0,0,1,.54,12.79m110.29-31.55L264,234.9c-.54,4.55-2.35,7.89-5.41,10a15.07,15.07,0,0,1-10.44,2.43,14.88,14.88,0,0,1-9.45-4.75c-2.51-2.75-3.51-6.4-3-10.95l5-43.18-14.63,15.31c-3.14,3.11-6.2,4.47-9.17,4.13s-5.68-2.46-7.78-6.28l-10.21-18-5.07,43.17c-.51,4.59-2.32,7.9-5.4,10a15.61,15.61,0,0,1-19.89-2.32q-3.78-4.07-3-11l8.49-72.46q.93-8.23,4.3-11.57c2.23-2.24,5.91-3.06,11.06-2.43q7,.79,10.44,3.48a25.38,25.38,0,0,1,6.06,7l15.87,26,21.3-21.81a24.55,24.55,0,0,1,7.3-5.24,18.61,18.61,0,0,1,10-1.07c5.12.59,8.58,2.23,10.36,4.95s2.32,6.76,1.7,12.25M396.75,90a23.37,23.37,0,1,1-23.37,23.37A23.38,23.38,0,0,1,396.75,90M304.14,186.2l22-3.67c3.65-.63,6.68.05,9.08,2a12,12,0,0,1,4.45,7.66,11.87,11.87,0,0,1-1.7,8.66c-1.67,2.63-4.3,4.25-7.95,4.87l-22,3.68,3.11,18.56c.62,3.7-.06,6.73-2,9.08a12.63,12.63,0,0,1-16,2.69c-2.61-1.59-4.22-4.22-4.84-8l-10.07-60.3c-1.31-7.69,1.86-12.22,9.47-13.49l39.08-6.54a11.17,11.17,0,0,1,9.11,2,12.62,12.62,0,0,1,2.72,16.33,10.92,10.92,0,0,1-7.95,4.83L303,179.24Zm131.31-25.83a17.65,17.65,0,0,1-4.64,8.43L395.19,207,388,243.22q-1.61,8.19-7.5,11.49a17.89,17.89,0,0,1-12.59,2A18.16,18.16,0,0,1,356.82,250c-2.77-3.54-3.62-8-2.54-13.47l7.18-36.19L342.87,151.4a17.82,17.82,0,0,1-1.07-9.56,14.26,14.26,0,0,1,2.8-6.06,17.6,17.6,0,0,1,5.15-4.49,21.69,21.69,0,0,1,6.54-2.52,16.32,16.32,0,0,1,6.84-.14,14.67,14.67,0,0,1,7.22,3.67,18.44,18.44,0,0,1,4.92,7.87l9.88,28.52,20-22.61a18.76,18.76,0,0,1,7.55-5.4,14.92,14.92,0,0,1,8.1-.62,16.48,16.48,0,0,1,6.25,2.71,23,23,0,0,1,5.09,4.84,17.08,17.08,0,0,1,3,6.11,14.32,14.32,0,0,1,.28,6.65M144.19,181l-7.86-.23a2.16,2.16,0,0,1-1.7-1l-4.25-6.62a2.09,2.09,0,0,0-3.73.4L124,181a2.07,2.07,0,0,1-1.44,1.33l-7.61,2a2.08,2.08,0,0,0-.77,3.65l6.23,4.84a2.05,2.05,0,0,1,.82,1.75l-.46,7.87a2.09,2.09,0,0,0,3.26,1.86l6.51-4.44a2,2,0,0,1,1.92-.22l7.36,2.85a2.08,2.08,0,0,0,2.77-2.51l-2.21-7.56a2,2,0,0,1,.4-1.92l5-6.09a2.1,2.1,0,0,0-1.56-3.42m1.56,3.42a2.1,2.1,0,0,0-1.56-3.42l-7.86-.23a2.16,2.16,0,0,1-1.7-1l-4.25-6.62a2.09,2.09,0,0,0-3.73.4L124,181a2.07,2.07,0,0,1-1.44,1.33l-7.61,2a2.08,2.08,0,0,0-.77,3.65l6.23,4.84a2.05,2.05,0,0,1,.82,1.75l-.46,7.87a2.09,2.09,0,0,0,3.26,1.86l6.51-4.44a2,2,0,0,1,1.92-.22l7.36,2.85a2.08,2.08,0,0,0,2.77-2.51l-2.21-7.56a2,2,0,0,1,.4-1.92Zm0,0a2.1,2.1,0,0,0-1.56-3.42l-7.86-.23a2.16,2.16,0,0,1-1.7-1l-4.25-6.62a2.09,2.09,0,0,0-3.73.4L124,181a2.07,2.07,0,0,1-1.44,1.33l-7.61,2a2.08,2.08,0,0,0-.77,3.65l6.23,4.84a2.05,2.05,0,0,1,.82,1.75l-.46,7.87a2.09,2.09,0,0,0,3.26,1.86l6.51-4.44a2,2,0,0,1,1.92-.22l7.36,2.85a2.08,2.08,0,0,0,2.77-2.51l-2.21-7.56a2,2,0,0,1,.4-1.92Zm0,0a2.1,2.1,0,0,0-1.56-3.42l-7.86-.23a2.16,2.16,0,0,1-1.7-1l-4.25-6.62a2.09,2.09,0,0,0-3.73.4L124,181a2.07,2.07,0,0,1-1.44,1.33l-7.61,2a2.08,2.08,0,0,0-.77,3.65l6.23,4.84a2.05,2.05,0,0,1,.82,1.75l-.46,7.87a2.09,2.09,0,0,0,3.26,1.86l6.51-4.44a2,2,0,0,1,1.92-.22l7.36,2.85a2.08,2.08,0,0,0,2.77-2.51l-2.21-7.56a2,2,0,0,1,.4-1.92Zm0,0a2.1,2.1,0,0,0-1.56-3.42l-7.86-.23a2.16,2.16,0,0,1-1.7-1l-4.25-6.62a2.09,2.09,0,0,0-3.73.4L124,181a2.07,2.07,0,0,1-1.44,1.33l-7.61,2a2.08,2.08,0,0,0-.77,3.65l6.23,4.84a2.05,2.05,0,0,1,.82,1.75l-.46,7.87a2.09,2.09,0,0,0,3.26,1.86l6.51-4.44a2,2,0,0,1,1.92-.22l7.36,2.85a2.08,2.08,0,0,0,2.77-2.51l-2.21-7.56a2,2,0,0,1,.4-1.92Z"/><path class="cls-1" d="M102.37,276.77a2.3,2.3,0,0,0-1.84.51c-5.17,3.8-7.78,5.66-13.1,9.37.68-4,1-5.94,1.67-9.9A2.1,2.1,0,0,0,85,276c-1.38,7.87-2.06,11.8-3.45,19.66a2.1,2.1,0,0,0,1.81,2.41,2.06,2.06,0,0,0,2.46-1.67c.31-2,.48-2.91.82-4.84,1.81-1.21,2.72-1.84,4.53-3,2.46,4.32,3.71,6.5,6.25,10.83A2.12,2.12,0,0,0,99,300.63,2.08,2.08,0,0,0,101.5,299a2.35,2.35,0,0,0-.37-1.59c-2.69-4.41-4-6.62-6.59-11.09,3.42-2.32,5.12-3.51,8.51-5.88a2,2,0,0,0,1-1.42,1.9,1.9,0,0,0-1.64-2.21"/><path class="cls-1" d="M111.74,278.13a2.11,2.11,0,0,0-2.41,1.76c-1.13,7.89-1.69,11.85-2.8,19.75a2.16,2.16,0,0,0,4.27.59c1.08-7.89,1.62-11.85,2.72-19.75a2.1,2.1,0,0,0-1.78-2.35"/><path class="cls-1" d="M128.94,280.51c-2.69-.31-4-.48-6.73-.82a2.11,2.11,0,0,0-2.38,1.84c-1,7.75-1.5,11.63-2.49,19.38a2.09,2.09,0,0,0,1.9,2.35c2.77.36,4.16.53,6.93.85,7.7.9,13.52-3.74,14.2-10.39v-.08c.68-6.65-4-12.25-11.43-13.13m7,12.76v.06c-.51,4.61-4.19,7.61-9.31,7-1.92-.22-2.88-.34-4.81-.59l2-16,4.73.57c5,.59,7.89,4.33,7.41,9"/><path class="cls-1" d="M154.69,293.13c-4.56-1.47-5.57-2.38-5.4-4.22v-.05c.14-1.56,1.66-2.69,4.13-2.46a10.07,10.07,0,0,1,5.37,2.23,2,2,0,0,0,1.05.4,2,2,0,0,0,2.15-1.79,1.88,1.88,0,0,0-.79-1.72,13.43,13.43,0,0,0-7.39-2.8c-4.72-.43-8.4,2.06-8.77,6.11,0,0,0,0,0,.05-.39,4.36,2.35,6.17,7.39,7.81,4.38,1.42,5.32,2.38,5.18,4.08v.05c-.15,1.76-1.93,2.86-4.56,2.64a10.68,10.68,0,0,1-6.62-3.06,2,2,0,0,0-1.22-.48,2,2,0,0,0-2.18,1.73,1.91,1.91,0,0,0,.68,1.67,15.22,15.22,0,0,0,8.92,3.81c5.15.43,9-1.95,9.28-6.39v-.06c.28-3.93-2.21-5.91-7.19-7.55"/><path class="cls-1" d="M196.17,303.09a1.9,1.9,0,0,0-1.3.42,8.9,8.9,0,0,1-6.2,2.07,8.06,8.06,0,0,1-7.64-8.77v-.09a8.09,8.09,0,0,1,8.32-8,8.89,8.89,0,0,1,5.66,2.35,1.93,1.93,0,0,0,1.24.46,2.06,2.06,0,0,0,1.39-3.65,12.65,12.65,0,0,0-8.09-3,12.21,12.21,0,0,0-13,11.65v.09a12,12,0,0,0,11.83,12.79,12.45,12.45,0,0,0,9-2.89,1.88,1.88,0,0,0,.73-1.47,2,2,0,0,0-2-2"/><path class="cls-1" d="M218.35,305.89c-4.41,0-6.65-.06-11.06-.11.11-7.25.17-10.84.31-18.06a2.07,2.07,0,0,0-2-2.12,2.1,2.1,0,0,0-2.18,2c-.17,7.89-.25,11.83-.42,19.75a2.09,2.09,0,0,0,2.12,2.15c5.29.08,7.95.11,13.27.14a1.9,1.9,0,1,0,0-3.79"/><path class="cls-1" d="M234.62,285.4a12.35,12.35,0,0,0-12.48,12.43v.05c0,6.68,5.27,12.22,12.82,12.11s12.7-5.91,12.48-12.59v-.08a12.23,12.23,0,0,0-12.82-11.92M243,297.6a8.06,8.06,0,0,1-8,8.52,8.16,8.16,0,0,1-8.37-8.32v-.06a8.14,8.14,0,0,1,8-8.49,8.26,8.26,0,0,1,8.38,8.26Z"/><path class="cls-1" d="M266.76,284.64c-6.33.34-9.5.51-15.84.73a2,2,0,0,0-1.87,2,2,2,0,0,0,2,1.87c2.35-.08,3.51-.14,5.83-.25.31,7.18.48,10.78.82,18a2.17,2.17,0,0,0,4.33-.19c-.37-7.19-.54-10.78-.91-18,2.35-.11,3.51-.17,5.86-.31a1.93,1.93,0,0,0-.23-3.85"/><path class="cls-1" d="M292.82,284.61a2.1,2.1,0,0,0-4.19.37c.29,3.17.4,4.75.68,7.95-4.61.37-6.9.57-11.48.88-.23-3.17-.34-4.76-.57-7.95a2.1,2.1,0,0,0-2.24-1.93,2.12,2.12,0,0,0-2,2.21c.54,8,.8,11.94,1.31,19.92a2.16,2.16,0,0,0,4.3-.28c-.23-3.26-.34-4.87-.57-8.1,4.64-.34,6.93-.51,11.57-.9.26,3.22.4,4.84.68,8.06a2.16,2.16,0,0,0,4.3-.37c-.73-8-1.07-11.91-1.81-19.86"/><path class="cls-1" d="M303.4,283.56a2.1,2.1,0,0,0-4.18.43c.76,7.95,1.16,11.94,1.95,19.86a2.16,2.16,0,0,0,4.3-.42c-.85-7.95-1.25-11.91-2.07-19.87"/><path class="cls-1" d="M330.48,280.25a2.09,2.09,0,0,0-4.13.57c.79,5.77,1.16,8.69,1.95,14.46-5.66-5.46-8.43-8.21-13.92-13.75a2.7,2.7,0,0,0-2.32-1,3,3,0,0,1-.42.05,2.1,2.1,0,0,0-1.87,2.32c.88,7.92,1.33,11.89,2.21,19.81a2.11,2.11,0,0,0,2.37,1.78,2.07,2.07,0,0,0,1.84-2.26c-.7-6-1-9-1.75-15,5.66,5.72,8.54,8.55,14.4,14.15a2.75,2.75,0,0,0,2.41.93.43.43,0,0,0,.17,0,2.07,2.07,0,0,0,1.81-2.32c-1.11-7.92-1.67-11.88-2.75-19.78"/><path class="cls-1" d="M360.64,292.82c-.45-2.52-.68-3.77-1.1-6.26a2.1,2.1,0,0,0-2.49-1.72L350.4,286a1.86,1.86,0,0,0-1.58,2.09,1.83,1.83,0,0,0,2.18,1.48c1.89-.32,2.82-.46,4.72-.77.31,1.76.45,2.63.74,4.39a10.18,10.18,0,0,1-5.55,2.71c-5,.82-8.77-2.26-9.51-7.07v-.09a8.11,8.11,0,0,1,6.43-9.47,9.28,9.28,0,0,1,6.08.87,2.35,2.35,0,0,0,1.36.26A2.09,2.09,0,0,0,357,278a2.23,2.23,0,0,0-1.13-1.53,13.35,13.35,0,0,0-8.46-1,12.28,12.28,0,0,0-10.41,14v.06c1,6.84,6.76,11.37,14.4,10.15a15.73,15.73,0,0,0,8.21-4,2.86,2.86,0,0,0,1-2.85"/><path class="cls-1" d="M336.12,270.86c-9.56,1.45-19.17,2.47-28.79,3.48s-19.27,1.6-28.92,2.21c-19.31,1.2-38.65,1.64-58,1.65-19.34-.18-38.68-.58-58-1.81-9.65-.63-19.29-1.36-28.91-2.28s-19.23-2.08-28.79-3.56a.7.7,0,0,1-.59-.8.71.71,0,0,1,.74-.6c9.64.6,19.25,1.26,28.88,1.64s19.25.92,28.88,1.18c19.25.55,38.51,1,57.77.88,19.26,0,38.52-.28,57.78-.77q14.44-.36,28.88-1.1c9.64-.35,19.25-1,28.89-1.53a.71.71,0,0,1,.14,1.41"/><path class="cls-1" d="M336.17,311.17c-9.49,2-19.07,3.56-28.67,5s-19.26,2.34-28.93,3.21c-19.33,1.71-38.75,2.4-58.16,2.39-19.4-.19-38.81-.86-58.14-2.63-9.67-.91-19.31-2-28.92-3.33s-19.17-3-28.64-5.11a.69.69,0,0,1-.54-.84.7.7,0,0,1,.78-.55c9.59,1.21,19.17,2.38,28.79,3.2s19.22,1.68,28.86,2.22c19.25,1.09,38.53,1.83,57.82,1.69,19.29.05,38.57-.5,57.83-1.51q14.46-.74,28.87-2.09c9.62-.76,19.21-1.88,28.81-3a.71.71,0,0,1,.24,1.39"/></g></g></svg>