<svg xmlns="http://www.w3.org/2000/svg" viewBox="0 0 505.42 313.71"><defs><style>.cls-1{fill:#fff;}</style></defs><g id="Layer_2" data-name="Layer 2"><g id="sahpe"><path class="cls-1" d="M245.14,256.29l-20.33-106H130.4a22.19,22.19,0,0,1-22.19-22.19h0A22.2,22.2,0,0,1,130.4,106H296.28Z"/><path class="cls-1" d="M325.84,106h51A22.19,22.19,0,0,1,399,128.14h0a22.18,22.18,0,0,1-22.19,22.19h-64.7Z"/><path class="cls-1" d="M204.29,70.59,226.57,0H140.63c-187.51,0-187.51,256.29,0,256.29H245.14l50.29-150-55.56-.19-27.3,80.19H132.06c-79.05,0-79.05-115.72,0-115.72Z"/><path class="cls-1" d="M301.14,185.7l-42.87,128,79.29-57.42h27.23C552.3,256.29,552.3,0,364.79,0H260.28L237.22,68.79,373.36,70c79.05,0,79.05,115.71,0,115.71Z"/></g></g></svg>