<svg xmlns="http://www.w3.org/2000/svg" viewBox="0 0 487.79 169.42"><defs><style>.cls-1{fill:#fff;}</style></defs><g id="Layer_2" data-name="Layer 2"><g id="Layer_1-2" data-name="Layer 1"><path class="cls-1" d="M279.44,42.47q0,4.06-2.25,5.9c-1.72,1.5-4.68,2.24-8.89,2.24h-3.66q-9.06,0-13.79-4.82t-4.82-14V0h5.07q7.14,0,7.14,8.15V31.08c0,3.27.5,5.52,1.5,6.73s3.07,2,6.06,2h2.5a26.92,26.92,0,0,0,6.31-.83,33.8,33.8,0,0,0,4.83-1.58Z"/><path class="cls-1" d="M320.57,43.47c0,2.43-.78,4.18-2.32,5.23q-2.75,1.83-9.4,1.83h-5.07q-18.94,0-18.94-19.86V21.86a90.94,90.94,0,0,1,.91-13.63Q287,0,294.31,0h26.18V4.41q0,6.23-7.65,6.23H297.47c-.17,1.27-.31,2.77-.42,4.49-.05,1.33-.11,2.77-.16,4.32h18.45V24q0,5.57-7,5.57H296.89v1.66c0,3.54.66,5.9,2,7.06s3.55,1.67,7,1.67h3a52.63,52.63,0,0,0,11.72-1.42Z"/><path class="cls-1" d="M276.69,87.66a16.8,16.8,0,0,1-12.3,4.74,20.88,20.88,0,0,1-6.81-1v17.95h-5a6.64,6.64,0,0,1-4.65-1.74,8.1,8.1,0,0,1-2.33-6.24v-40a44.26,44.26,0,0,1,6.73-1.66,36.39,36.39,0,0,1,6.9-.92h5.4q7.65,0,12.3,4.16,4.74,4.32,4.74,11.88Q281.68,82.84,276.69,87.66ZM263.48,69.3H260.4a13.63,13.63,0,0,0-2.82.49V81.43a26.31,26.31,0,0,0,5.57.5q6.32,0,6.31-6.23Q269.46,69.3,263.48,69.3Z"/><path class="cls-1" d="M317.33,109.35a8.15,8.15,0,0,1-5.4-1.74,5.75,5.75,0,0,1-2.16-3.91l-.25-1.49a14.92,14.92,0,0,1-.25-1.58l-.08-.67-.08-.58a21.47,21.47,0,0,0-.42-2.24h-17.2q-1.5,6.48-2.41,12.21h-4.74c-3.71,0-5.57-1.93-5.57-5.81s1.88-11.2,5.65-21.61q6-16.87,11.3-22.77h4.41a9.62,9.62,0,0,1,8.81,5.07q3.49,6.31,7.73,19.53a160.06,160.06,0,0,1,6,25.59ZM294.15,87.16h11.71a80.87,80.87,0,0,0-5.81-15.54A77.07,77.07,0,0,0,294.15,87.16Z"/><path class="cls-1" d="M365.7,109.35a11,11,0,0,1-6.65-2.07q-3.9-3-8.14-11.14-9.39-18.28-9.64-18.78v32h-5a6.59,6.59,0,0,1-4.74-1.91,7.23,7.23,0,0,1-2.24-5.57V59.16h5.9q9.39,0,14.63,10.39.82,1.74,2.08,4.23L353.07,76l1.08,2.24Q357,84,358.8,87.58V59.16h5.41a6,6,0,0,1,4.32,2,6.36,6.36,0,0,1,2.07,4.74v43.46Z"/><path class="cls-1" d="M390.22,109.35a6.59,6.59,0,0,1-4.74-1.91,7.5,7.5,0,0,1-2.24-5.65V59.16h5.48A6.23,6.23,0,0,1,393,60.9a5.75,5.75,0,0,1,2.08,4.49v44Z"/><path class="cls-1" d="M443.16,102.62q0,3.66-2.33,5.24-2.74,1.83-9.39,1.83h-5.07q-18.94,0-18.95-19.87V81a90.94,90.94,0,0,1,.92-13.63q1.25-8.22,8.56-8.22h26.18v4.4q0,6.24-7.65,6.23H420.06c-.17,1.28-.31,2.77-.42,4.49-.06,1.33-.11,2.77-.17,4.32h18.45v4.57q0,5.58-7,5.57H419.47V90.4q0,5.32,2,7.07c1.22,1.11,3.54,1.66,7,1.66h3a53.26,53.26,0,0,0,11.72-1.41Z"/><path class="cls-1" d="M487.79,107.78a7.28,7.28,0,0,1-5.49,1.91q-6.06,0-8.14-4.91l-3.58-8.64a10.84,10.84,0,0,0-2.82-4.32,6.11,6.11,0,0,0-2.83-1c-.78-.11-1.33-.19-1.66-.25h-.09c-.27,0-.52-.11-.74-.17l-.17-.08h-.17a2.27,2.27,0,0,0-.66-.08v19.11H457.2q-7.72,0-7.73-7.64V60.9a35.66,35.66,0,0,1,6.4-1.5,50.46,50.46,0,0,1,7.15-.66h5.32c5.09,0,9.2,1.39,12.3,4.16a13.84,13.84,0,0,1,4.57,10.72A15.5,15.5,0,0,1,483,81.85a11.62,11.62,0,0,1-5.82,5,14.18,14.18,0,0,1,4.07,5.82q2.41,5.49,3.82,8.89a12.43,12.43,0,0,0,1.33,2.58c.17.28.34.55.5.83l.25.33.25.33.42.75Zm-23.27-38.4c-.39,0-.86,0-1.42.08l-1.66.17V80.27c1.16.11,3.05.16,5.65.16a6.56,6.56,0,0,0,4.24-1.33,4.81,4.81,0,0,0,1.83-3.9c0-3.88-2-5.82-6-5.82Z"/><path class="cls-1" d="M297.64,168.51q-7.41,0-7.4-7.56,0-3.66-.33-10.89-.42-7.4-.92-12.63l-.5,1.24q-1.32,4.32-3.32,10.23-1.5,4.72-3.33,10.3a34.35,34.35,0,0,1-4.4,9.31H274.2q-6,0-8.81-8.4l-6.82-20.19c-.44-1.33-.77-2.24-1-2.74-.45,4.1-.8,9.5-1.08,16.2q-.33,8.82-.33,15.13h-4.58a7.26,7.26,0,0,1-5.23-1.91,7.83,7.83,0,0,1-2-5.65q0-8,1.33-21.69Q247,126,248.35,118.31h3.08q11.06,0,14.21,8.89l6.73,18.7c1,2.88,1.52,4.46,1.58,4.74l.17-.33.08-.25c.33-1.11.77-2.5,1.33-4.16l1.41-4.32c1.17-3.49,2.08-6.31,2.74-8.48q3.82-11.46,8.23-14.79h1.5q9.3,0,10.72,10.89.66,6.31,1.41,18.62.84,13.45.83,20.69Z"/><path class="cls-1" d="M346.59,168.51a8.11,8.11,0,0,1-5.41-1.75,5.72,5.72,0,0,1-2.16-3.9l-.25-1.5a12.47,12.47,0,0,1-.24-1.58l-.09-.66-.08-.58a19.74,19.74,0,0,0-.42-2.25h-17.2q-1.5,6.48-2.41,12.22h-4.74q-5.56,0-5.56-5.82,0-6,5.65-21.61,6-16.86,11.3-22.77h4.4a9.62,9.62,0,0,1,8.81,5.07q3.49,6.31,7.73,19.53a160.29,160.29,0,0,1,6,25.6ZM323.4,146.32h11.72a79.75,79.75,0,0,0-5.82-15.54A77.67,77.67,0,0,0,323.4,146.32Z"/><path class="cls-1" d="M397.78,156.21q0,13.22-17.12,13.21a24.31,24.31,0,0,1-17.53-6.89q-7.58-7.16-7.57-18.54t7.32-18.78q7.64-7.72,20.11-7.73,6.81,0,10.64,3.41A9.2,9.2,0,0,1,397,128v4.49a31.94,31.94,0,0,0-15.2-4,13.65,13.65,0,0,0-14.05,14.13q0,8,4,12.05,3.66,3.58,10,3.58,4.58,0,4.57-3.33v-3.82a39,39,0,0,0-1-8.15h6.4a6.14,6.14,0,0,1,4.23,1.75,5.13,5.13,0,0,1,1.83,3.74Z"/><path class="cls-1" d="M413.9,168.51a6.63,6.63,0,0,1-4.73-1.91,7.49,7.49,0,0,1-2.25-5.65V118.31h5.49a6.23,6.23,0,0,1,4.32,1.75,5.77,5.77,0,0,1,2.08,4.49v44Z"/><path class="cls-1" d="M465.93,133.44a24.92,24.92,0,0,0-7.81-4.07,23.84,23.84,0,0,0-6.9-1.08,13.32,13.32,0,0,0-9.81,3.9,14.42,14.42,0,0,0-3.9,10.39q0,7.56,3.9,11.72c2.5,2.66,5.87,4,10.14,4s9.12-1.58,14.21-4.74v4.82q0,5.24-5,8.06a20.71,20.71,0,0,1-10.48,2.49A23.86,23.86,0,0,1,432.94,162q-7.41-7.07-7.4-18.12,0-11.64,7.06-19t18.54-7.4q6.64,0,10.63,2.75a9.54,9.54,0,0,1,4.16,8.31Z"/><path class="cls-1" d="M219.86,40H144L131.64,2.79A4,4,0,0,0,126.53.2l-6.79,2.27A4,4,0,0,0,117,6.13a3.82,3.82,0,0,0,.19,1.45L127.87,40l2.94,8.82.16.49.86,2.66a4.81,4.81,0,0,0,4.52,3.29h51.1a4.73,4.73,0,0,1,2.8,8.56l-41.35,30a4.77,4.77,0,0,0-1.72,5.31L163,147.75a4.75,4.75,0,0,1-7.3,5.31l-41.35-30a4.73,4.73,0,0,0-5.57,0L67.41,153.06a4.74,4.74,0,0,1-7.29-5.31L75.89,99.14a4.73,4.73,0,0,0-1.72-5.31l-41.32-30a4.72,4.72,0,0,1,2.77-8.56H86.74a4.78,4.78,0,0,0,4.5-3.29l3.9-12h-.08l4.41-13.33,6.3-19.06a3.92,3.92,0,0,0,.19-.94,4,4,0,0,0-2.77-4.17L96.4.2a4,4,0,0,0-5.11,2.59L79,40H3.82A3.81,3.81,0,0,0,.17,44.88l2.31,7.63a3.82,3.82,0,0,0,3.65,2.7h5.61l23.37,96.07c2.61,10.79,10.52,18.14,19.46,18.14H169.12c8.93,0,16.82-7.35,19.46-18.14l23.36-96.07h5.61a3.82,3.82,0,0,0,3.65-2.7l2.31-7.63A3.81,3.81,0,0,0,219.86,40Z"/></g></g></svg>