<svg xmlns="http://www.w3.org/2000/svg" viewBox="0 0 787.01 267.75"><defs><style>.cls-1{fill:#fff;}</style></defs><g id="Layer_2" data-name="Layer 2"><g id="Layer_1-2" data-name="Layer 1"><path class="cls-1" d="M361.19,3a38,38,0,0,1,15.24,3.12A40,40,0,0,1,389,14.64a41.28,41.28,0,0,1,8.61,12.61,38,38,0,0,1,3.19,15.57,38,38,0,0,1-3.11,15.32,41.33,41.33,0,0,1-8.44,12.53,39.25,39.25,0,0,1-12.53,8.52,38.8,38.8,0,0,1-15.57,3.11,40.18,40.18,0,0,1-15.4-3l-2.29-1V97.05a10.59,10.59,0,0,1-3.2,7.78,10.4,10.4,0,0,1-7.62,3.19,10.76,10.76,0,0,1-7.94-3.19,10.59,10.59,0,0,1-3.2-7.78V42.82a38.9,38.9,0,0,1,11.39-27.77,40.77,40.77,0,0,1,12.61-8.52A42.86,42.86,0,0,1,361.19,3Zm0,21.47a17.76,17.76,0,0,0-7,1.39,18.86,18.86,0,0,0-5.82,3.85,18,18,0,0,0-4,5.82,17.83,17.83,0,0,0-1.48,7.29,17.37,17.37,0,0,0,1.48,7.12,18.92,18.92,0,0,0,4,5.9,19.37,19.37,0,0,0,5.82,4,17,17,0,0,0,7,1.47,17.61,17.61,0,0,0,7.13-1.47,18,18,0,0,0,5.81-4,20,20,0,0,0,3.94-5.9,17.52,17.52,0,0,0,1.47-7.12A18.9,18.9,0,0,0,374.13,30,18.35,18.35,0,0,0,361.19,24.47Z"/><path class="cls-1" d="M406.74,55.6a50.81,50.81,0,0,1,4.09-20.32A53.72,53.72,0,0,1,422,18.65,52,52,0,0,1,459,3.33a49.64,49.64,0,0,1,22.78,5.33,54.26,54.26,0,0,1,17.69,14.17,9.06,9.06,0,0,1,1.8,5.57,10.27,10.27,0,0,1-3.44,7.7,11.9,11.9,0,0,1-8,3.44q-4.59-.16-6.55-2.46a32.19,32.19,0,0,0-10.57-8.68A29.26,29.26,0,0,0,459,25.12a29.87,29.87,0,0,0-11.8,2.38,30.6,30.6,0,0,0-9.74,6.55,32.11,32.11,0,0,0-6.64,9.67,27.93,27.93,0,0,0-2.46,11.55,30.65,30.65,0,0,0,2.38,12A30.42,30.42,0,0,0,459,86.07a29.14,29.14,0,0,0,13.68-3.28,32.07,32.07,0,0,0,10.57-8.68A9.46,9.46,0,0,1,490,71.82a11,11,0,0,1,8,3.27,10,10,0,0,1,3.27,7.21,9.5,9.5,0,0,1-1.8,6.06,54.29,54.29,0,0,1-17.69,14.18A49.63,49.63,0,0,1,459,107.86a51.94,51.94,0,0,1-37-15.32,53.61,53.61,0,0,1-11.14-16.63A50.73,50.73,0,0,1,406.74,55.6Z"/><path class="cls-1" d="M363.48,201a14.12,14.12,0,0,0,6.56-2.7A8.41,8.41,0,0,0,373,192a7.57,7.57,0,0,0-2.79-6,15.6,15.6,0,0,0-6.39-2.86l-11.47-2a49.64,49.64,0,0,1-11.63-3,30,30,0,0,1-10-6.56,32.82,32.82,0,0,1-7.05-10.24,28.46,28.46,0,0,1-2.46-12.45,29.84,29.84,0,0,1,2.46-12,28.55,28.55,0,0,1,6.8-9.67,34.54,34.54,0,0,1,10.24-6.47,37.82,37.82,0,0,1,8.68-2.29,45.67,45.67,0,0,1,7.87-.66,40.72,40.72,0,0,1,8.52.82A37.63,37.63,0,0,1,378.23,123q2.79,1,9.18,7a22.33,22.33,0,0,1,1.71,2.46,14.36,14.36,0,0,1,1.4,3,10.8,10.8,0,0,1-1.48,8.35,10.58,10.58,0,0,1-7,4.92,8.81,8.81,0,0,1-6.23-.57,27.5,27.5,0,0,1-5.08-3.53,20.7,20.7,0,0,0-5.24-4.18,16.27,16.27,0,0,0-7.45-1.39,24.91,24.91,0,0,0-7.95,1.07,11.35,11.35,0,0,0-5.08,3.36,9.62,9.62,0,0,0,.74,12.53,12.39,12.39,0,0,0,7.45,3.19l10.49,1.48a58.89,58.89,0,0,1,14.91,4.09q6.88,3,10.32,6.72a22.11,22.11,0,0,1,4.83,8.11,36.82,36.82,0,0,1,1.4,11.06,32.57,32.57,0,0,1-2.63,11.88,31.32,31.32,0,0,1-6.8,10.16,32.76,32.76,0,0,1-10.15,6.88,32.2,32.2,0,0,1-12.21,2.7l-2.62.17a19.79,19.79,0,0,1-3.61,0,40,40,0,0,1-8.51-.82,37.68,37.68,0,0,1-12.46-4.43,36.15,36.15,0,0,1-13.76-13.76,16.31,16.31,0,0,1-1.23-2.78,9.48,9.48,0,0,1-.57-3.12,11.18,11.18,0,0,1,11.14-11.14,9,9,0,0,1,5.9,1.89,19.86,19.86,0,0,1,4.09,4.67,15.64,15.64,0,0,0,5.08,5.24,21,21,0,0,0,5.16,2.54,19,19,0,0,0,4.51.65A52.74,52.74,0,0,0,363.48,201Z"/><path class="cls-1" d="M471.62,118a10.66,10.66,0,0,1,7.94,3.27,10.89,10.89,0,0,1,3.2,7.87,10.5,10.5,0,0,1-3.2,7.86,10.92,10.92,0,0,1-7.94,3.12H453.27v71.43a10.93,10.93,0,0,1-3.12,8,11.28,11.28,0,0,1-15.72,0,10.93,10.93,0,0,1-3.12-8V140.08H412.8A10.71,10.71,0,0,1,405,137a10.5,10.5,0,0,1-3.2-7.86,10.89,10.89,0,0,1,3.2-7.87A10.46,10.46,0,0,1,412.8,118Z"/><path class="cls-1" d="M481.12,170.22a50.74,50.74,0,0,1,4.1-20.31,53.43,53.43,0,0,1,11.14-16.63,51.94,51.94,0,0,1,37-15.32,50.76,50.76,0,0,1,20.31,4.09,51.76,51.76,0,0,1,16.55,11.23,53.61,53.61,0,0,1,11.14,16.63,52.38,52.38,0,0,1,0,40.63,53.72,53.72,0,0,1-11.14,16.63,51.89,51.89,0,0,1-16.55,11.22,50.77,50.77,0,0,1-20.31,4.1,52,52,0,0,1-37-15.32,53.55,53.55,0,0,1-11.14-16.63A50.82,50.82,0,0,1,481.12,170.22Zm21.63,0a30.48,30.48,0,0,0,30.64,30.64,29.44,29.44,0,0,0,11.87-2.38,30.69,30.69,0,0,0,9.67-6.55,30.37,30.37,0,0,0,6.55-9.75,30,30,0,0,0,2.38-12,29.49,29.49,0,0,0-2.38-11.88,31,31,0,0,0-16.22-16.22,29.6,29.6,0,0,0-11.87-2.37,30.3,30.3,0,0,0-12,2.37,30.88,30.88,0,0,0-16.3,16.22A29.65,29.65,0,0,0,502.75,170.22Z"/><path class="cls-1" d="M593.68,170.22a50.73,50.73,0,0,1,4.09-20.31,53.61,53.61,0,0,1,11.14-16.63,51.94,51.94,0,0,1,37-15.32,50.81,50.81,0,0,1,20.32,4.09,51.87,51.87,0,0,1,16.55,11.23A53.61,53.61,0,0,1,694,149.91a52.5,52.5,0,0,1,0,40.63,53.72,53.72,0,0,1-11.14,16.63,52,52,0,0,1-16.55,11.22,50.82,50.82,0,0,1-20.32,4.1,52,52,0,0,1-37-15.32,53.72,53.72,0,0,1-11.14-16.63A50.81,50.81,0,0,1,593.68,170.22Zm21.62,0a30.22,30.22,0,0,0,2.38,12,30.49,30.49,0,0,0,16.3,16.3,30,30,0,0,0,12,2.38,29.49,29.49,0,0,0,11.88-2.38A30.7,30.7,0,0,0,674,182.18a30.22,30.22,0,0,0,2.38-12A29.66,29.66,0,0,0,674,158.34a31,31,0,0,0-16.22-16.22,29.65,29.65,0,0,0-11.88-2.37,30.21,30.21,0,0,0-12,2.37,30.79,30.79,0,0,0-16.3,16.22A29.66,29.66,0,0,0,615.3,170.22Z"/><path class="cls-1" d="M747.36,118.45a40.46,40.46,0,0,1,15.07,2.87,38.88,38.88,0,0,1,12.62,8,40,40,0,0,1,8.68,12.21A35.63,35.63,0,0,1,787,156.79V212a10.2,10.2,0,0,1-3,7.37,10.59,10.59,0,0,1-7.46,3.28,11,11,0,0,1-7.62-2.87,9.36,9.36,0,0,1-3.19-7.29V158.1a18.6,18.6,0,0,0-1.39-7.13,17.09,17.09,0,0,0-3.94-5.82,20.24,20.24,0,0,0-5.89-3.93,18,18,0,0,0-7.29-1.47,17.42,17.42,0,0,0-6.89,1.39,19.58,19.58,0,0,0-5.73,3.69,17,17,0,0,0-3.93,5.57,16.47,16.47,0,0,0-1.48,6.88V212a10.12,10.12,0,0,1-3.27,7.46,10.5,10.5,0,0,1-7.54,3.19,10.94,10.94,0,0,1-7.54-3,9.33,9.33,0,0,1-3.27-7.21V158.1a41.31,41.31,0,0,1,3.19-15.4,39.77,39.77,0,0,1,8.36-12.62,39.06,39.06,0,0,1,28.26-11.63Z"/><path class="cls-1" d="M286.3,25.76a25.72,25.72,0,0,1-25.76,25.76H63.72a12.2,12.2,0,1,0,0,24.39H118a25.77,25.77,0,0,1,0,51.53H63.72A63.72,63.72,0,0,1,63.72,0H260.54A25.72,25.72,0,0,1,286.3,25.76Z"/><path class="cls-1" d="M286.3,139.63a63.92,63.92,0,0,1-63.72,63.72H63.72a12.13,12.13,0,0,0-12.2,12.19V242A25.76,25.76,0,0,1,0,242V215.54a63.7,63.7,0,0,1,63.72-63.72H222.58a12.19,12.19,0,1,0,0-24.38H160.76a47.74,47.74,0,0,0,0-51.53h61.82A63.81,63.81,0,0,1,286.3,139.63Z"/></g></g></svg>