<svg xmlns="http://www.w3.org/2000/svg" viewBox="0 0 397.11 86.08"><defs><style>.cls-1{fill:#fff;}</style></defs><g id="Layer_2" data-name="Layer 2"><g id="Layer_1-2" data-name="Layer 1"><path class="cls-1" d="M177.66,65.9v1.88H166.83V75h10.09v1.81H166.83v7.08h11.29V85.8H164.87V65.9Z"/><path class="cls-1" d="M183.69,65.9h2.19l6.56,16,6.6-16h2.22l-8.82,20.18Z"/><path class="cls-1" d="M220.08,65.9v1.88H209.24V75h10.1v1.81h-10.1v7.08h11.29V85.8H207.28V65.9Z"/><path class="cls-1" d="M240.94,65.9H243V85.8h-1.82L229.86,69.31l0,16.49h-2V65.9h1.94l11.2,16.4Z"/><path class="cls-1" d="M263.4,67.75h-6.25v18h-2v-18h-6.25V65.9H263.4Z"/><path class="cls-1" d="M280.24,84.48a7.47,7.47,0,0,1-4.81,1.43,11.78,11.78,0,0,1-4.55-.86,9,9,0,0,1-3.24-2.12l.91-1.68a8.33,8.33,0,0,0,3,2,9.8,9.8,0,0,0,3.88.8,5.61,5.61,0,0,0,3.36-.93A3.16,3.16,0,0,0,280,80.4a2.5,2.5,0,0,0-.69-1.82,4.81,4.81,0,0,0-1.67-1.12,27.89,27.89,0,0,0-2.73-.93,29.6,29.6,0,0,1-3.29-1A5.55,5.55,0,0,1,269.52,74a3.79,3.79,0,0,1-.88-2.6,5,5,0,0,1,.89-3,5.7,5.7,0,0,1,2.46-2,8.82,8.82,0,0,1,3.53-.68,12.17,12.17,0,0,1,3.25.44,7.5,7.5,0,0,1,2.49,1.07v2a6.42,6.42,0,0,0-2.49-1.18,12.07,12.07,0,0,0-3.28-.44,6.47,6.47,0,0,0-2.45.44,4.11,4.11,0,0,0-1.76,1.26,3,3,0,0,0-.65,1.93,2.24,2.24,0,0,0,.63,1.64,4.79,4.79,0,0,0,1.57,1,24.19,24.19,0,0,0,2.6.87,29.25,29.25,0,0,1,3.41,1.11,5.92,5.92,0,0,1,2.25,1.63A4.31,4.31,0,0,1,282,80.4,5,5,0,0,1,280.24,84.48Z"/><path class="cls-1" d="M196.77,0V8H170.54v13.7h24.34v7.68H170.54V42.89h27.38v7.83h-35.5V0Z"/><path class="cls-1" d="M223.65,0V42.89h24.27v7.83H215.24V0Z"/><path class="cls-1" d="M305.88,0h6.23V50.72h-8.18l.21-35L287.48,39,271,15.8l.22,34.92H263V0h6.23l18.26,25.94Z"/><path class="cls-1" d="M338.92,0V50.72h-8.4V0Z"/><path class="cls-1" d="M357.33,0h15.43q10.73,0,16.34,4.28t5.61,12.82A16.19,16.19,0,0,1,391.89,27a16.41,16.41,0,0,1-8.55,5.62l13.77,18.18L387,50.72,375.3,34.13a29.64,29.64,0,0,1-3.55.36c-1.21,0-2.64,0-4.28,0h-1.81V50.72h-8.33Zm10.14,27.1c2.51-.05,4.69-.13,6.52-.25a21.76,21.76,0,0,0,5.07-.91,9.81,9.81,0,0,0,5.33-3.08,8.58,8.58,0,0,0,1.85-5.69,8.6,8.6,0,0,0-3.41-7.32q-3.4-2.53-9.92-2.53h-7.25V27.1Z"/><path class="cls-1" d="M43.51,86H0A14.15,14.15,0,0,1,14.15,71.82H43.51A21.76,21.76,0,0,0,65.27,50.06V35.91A35.91,35.91,0,0,1,101.18,0h42.46a14.15,14.15,0,0,1-14.16,14.15H101.17A21.75,21.75,0,0,0,79.42,35.91V50.06A35.91,35.91,0,0,1,43.51,86Z"/><path class="cls-1" d="M72.62,14.15H14.15A14.15,14.15,0,0,1,0,0H58.46A14.16,14.16,0,0,1,72.62,14.15Z"/><path class="cls-1" d="M143.64,50.06H93.57A14.14,14.14,0,0,1,79.42,35.91h50.06a14.16,14.16,0,0,1,14.16,14.15Z"/><path class="cls-1" d="M51.11,50.06H0A14.16,14.16,0,0,1,14.15,35.91H65.26A14.15,14.15,0,0,1,51.11,50.06Z"/><path class="cls-1" d="M144.68,86H86.23A14.15,14.15,0,0,1,72.08,71.82h58.45A14.14,14.14,0,0,1,144.68,86Z"/></g></g></svg>