<svg xmlns="http://www.w3.org/2000/svg" viewBox="0 0 556.39 330.61"><defs><style>.cls-1{fill:#fff;}</style></defs><g id="Layer_2" data-name="Layer 2"><g id="Layer_1-2" data-name="Layer 1"><path class="cls-1" d="M167.33,330.61H0a54.43,54.43,0,0,1,54.43-54.43H167.32A83.66,83.66,0,0,0,251,192.52V138.09A138.1,138.1,0,0,1,389.08,0H552.36a54.43,54.43,0,0,1-54.43,54.43H389.07a83.67,83.67,0,0,0-83.66,83.66v54.43A138.08,138.08,0,0,1,167.33,330.61Z"/><path class="cls-1" d="M279.26,54.43H54.43A54.43,54.43,0,0,1,0,0H224.83a54.43,54.43,0,0,1,54.43,54.43Z"/><path class="cls-1" d="M552.36,192.52H359.83a54.43,54.43,0,0,1-54.43-54.43H497.93a54.43,54.43,0,0,1,54.43,54.43Z"/><path class="cls-1" d="M196.54,192.52H0a54.43,54.43,0,0,1,54.43-54.43H251A54.43,54.43,0,0,1,196.54,192.52Z"/><path class="cls-1" d="M556.39,330.61H331.61a54.43,54.43,0,0,1-54.43-54.43H502a54.43,54.43,0,0,1,54.43,54.43Z"/></g></g></svg>