<?xml version="1.0" standalone="no"?>
<!DOCTYPE svg PUBLIC "-//W3C//DTD SVG 20010904//EN"
 "http://www.w3.org/TR/2001/REC-SVG-20010904/DTD/svg10.dtd">
<svg version="1.0" xmlns="http://www.w3.org/2000/svg"
 width="2000.000000pt" height="2000.000000pt" viewBox="0 0 2000.000000 2000.000000"
 preserveAspectRatio="xMidYMid meet">

<g transform="translate(0.000000,2000.000000) scale(0.100000,-0.100000)"
fill="#fff" stroke="none">
<path d="M13455 18390 c-534 -39 -1029 -171 -1466 -390 -1159 -582 -1975
-1867 -2039 -3210 -25 -533 65 -1007 284 -1495 19 -44 28 -69 18 -55 -9 13
-66 88 -126 165 -941 1210 -2267 2056 -3556 2269 -272 45 -359 51 -690 51
-336 0 -450 -10 -727 -61 -1343 -246 -2550 -1149 -3158 -2363 -208 -416 -340
-862 -402 -1361 -25 -205 -26 -783 0 -985 71 -564 207 -1031 442 -1510 312
-637 696 -1091 1381 -1637 914 -728 2063 -1324 3216 -1669 95 -28 175 -53 177
-55 2 -2 -20 -59 -49 -126 -42 -96 -72 -146 -134 -227 -338 -435 -816 -933
-1266 -1317 -931 -793 -2030 -1402 -3166 -1754 -205 -63 -578 -161 -766 -200
l-106 -22 14 -34 c8 -18 14 -51 14 -73 0 -38 2 -41 38 -50 1587 -419 3462
-744 5212 -905 1410 -130 3014 -170 4378 -110 117 5 152 10 152 20 0 17 0 17
245 49 1072 140 2349 371 3517 635 636 144 2072 513 2102 541 12 11 -293 869
-494 1389 l-72 185 -84 2053 -85 2053 169 192 c613 700 1016 1285 1361 1977
388 780 587 1474 673 2345 20 200 17 876 -5 1085 -79 759 -258 1391 -567 2005
-419 833 -993 1458 -1768 1924 -595 358 -1271 585 -1957 656 -184 19 -548 27
-710 15z m1200 -915 c785 -83 1468 -407 2043 -970 155 -151 266 -276 381 -429
415 -552 664 -1190 721 -1846 30 -345 21 -917 -20 -1365 -138 -1480 -627
-2904 -1435 -4181 -50 -78 -92 -140 -95 -137 -6 5 -60 1306 -55 1311 2 2 56
15 121 28 64 13 118 25 120 26 1 2 -4 39 -12 83 -34 196 -78 535 -99 762 l-7
72 65 29 c61 28 71 38 216 216 84 102 158 186 165 186 7 0 41 65 75 145 l62
145 -125 438 c-69 240 -204 710 -300 1044 -96 333 -177 631 -181 662 -4 30
-12 59 -19 64 -6 5 -56 25 -111 45 -55 19 -147 54 -204 77 -58 23 -166 62
-240 86 -144 48 -583 204 -590 210 -17 14 -41 185 -41 290 0 115 2 126 40 237
22 63 40 134 40 156 0 24 5 41 11 41 8 0 10 -17 7 -52 l-6 -53 19 55 c10 30
18 79 18 109 1 59 8 61 22 9 6 -24 7 -10 4 47 -6 136 -63 273 -151 365 -112
117 -288 167 -434 124 -52 -15 -55 -15 -93 6 -76 43 -192 61 -257 40 -20 -6
-15 -8 25 -9 28 -1 64 -8 80 -16 29 -13 28 -13 -35 -14 -169 -2 -380 -65 -560
-165 -25 -14 -73 -37 -106 -51 -75 -32 -124 -81 -160 -159 -22 -49 -26 -68
-22 -120 5 -55 46 -165 48 -125 1 37 33 121 56 146 l25 28 -21 -43 c-12 -24
-24 -66 -27 -93 -3 -28 -14 -67 -24 -87 -22 -43 -23 -76 -4 -117 l15 -30 -6
32 c-7 43 12 107 42 140 l24 28 -7 -30 c-5 -16 -8 -68 -8 -115 0 -72 4 -93 27
-140 15 -31 42 -69 60 -85 18 -17 25 -21 16 -10 -22 26 -48 89 -48 112 1 10 9
1 20 -21 24 -48 44 -71 94 -107 49 -36 62 -37 36 -1 -11 15 -22 43 -26 62 l-6
35 29 -34 c15 -18 48 -53 72 -77 l44 -45 -37 -125 c-30 -98 -35 -128 -26 -139
17 -21 78 -38 111 -31 31 6 32 4 29 -51 -1 -26 4 -35 29 -47 16 -9 36 -16 43
-16 8 0 13 -12 13 -32 0 -25 6 -35 27 -45 17 -9 33 -29 43 -58 19 -48 39 -71
70 -77 13 -3 -31 -30 -135 -81 -85 -42 -160 -81 -167 -87 -6 -5 -41 -24 -77
-42 l-65 -32 -32 -90 c-17 -50 -74 -218 -125 -374 -66 -202 -108 -310 -144
-377 -31 -59 -50 -106 -50 -127 0 -99 -71 -251 -165 -355 -46 -52 -61 -78 -86
-150 l-30 -88 -95 -80 c-107 -90 -296 -281 -369 -374 -26 -34 -52 -61 -57 -61
-12 0 -2 102 19 190 30 124 108 266 211 382 60 68 77 111 76 198 -2 125 -49
208 -223 392 -127 135 -182 209 -206 278 -13 37 -12 42 16 98 56 107 56 239 1
355 -86 183 -309 277 -514 215 -29 -8 -41 -8 -53 2 -8 7 -12 16 -9 21 3 5 48
45 101 90 l96 80 43 -49 c44 -51 130 -102 168 -102 14 1 38 23 69 65 57 79
168 172 260 221 l69 36 -7 47 c-8 58 15 123 54 150 14 10 48 23 74 30 65 16
93 35 123 87 39 67 42 183 7 293 -3 9 4 5 16 -9 32 -39 54 -117 54 -194 0 -56
2 -65 10 -46 16 41 13 200 -5 248 -29 79 -82 154 -136 196 -30 23 -131 101
-225 175 -199 155 -278 211 -356 251 -217 109 -411 70 -601 -120 -91 -91 -133
-158 -176 -283 -31 -87 -43 -253 -25 -337 8 -35 8 -56 2 -58 -26 -9 -185 -122
-260 -186 -211 -178 -405 -465 -514 -756 -37 -100 -87 -283 -87 -322 -1 -58
-19 16 -34 138 -91 741 14 1468 309 2142 237 541 651 1055 1116 1384 553 391
1193 625 1864 681 122 11 534 5 660 -8z m-1015 -2321 c-44 -51 -70 -116 -70
-177 -1 -43 -3 -49 -12 -33 -27 48 19 180 79 225 39 29 40 26 3 -15z m-6750
-198 c792 -100 1551 -401 2255 -894 271 -190 492 -378 766 -652 238 -236 412
-435 583 -665 200 -268 211 -287 272 -461 110 -314 116 -339 118 -454 1 -117
-14 -164 -75 -241 -63 -79 -178 -121 -242 -88 -47 24 22 -37 72 -64 196 -107
430 -59 557 114 52 72 76 140 83 243 l6 89 72 -184 c39 -101 92 -235 116 -297
l45 -113 -21 -13 c-12 -8 -94 -58 -182 -111 -450 -275 -949 -634 -1360 -979
-430 -361 -935 -854 -1290 -1261 -478 -546 -905 -1135 -1265 -1738 -124 -208
-137 -227 -158 -222 -36 9 -398 154 -631 254 -1012 434 -1973 976 -2846 1604
-210 152 -281 211 -435 366 -376 376 -622 816 -765 1366 -81 309 -109 539
-109 880 1 255 8 354 45 575 145 875 589 1588 1345 2158 500 377 1180 654
1864 761 108 17 181 26 385 45 102 10 677 -4 795 -18z m7680 -990 c0 -2 -7 -7
-16 -10 -8 -3 -12 -2 -9 4 6 10 25 14 25 6z m-775 -3117 c-91 -492 -169 -904
-171 -916 -5 -17 0 -22 26 -28 23 -5 29 -10 21 -18 -20 -20 -12 -24 50 -26 51
-2 70 -8 116 -39 52 -34 55 -38 50 -72 -3 -19 -11 -79 -18 -132 -7 -54 -15
-98 -18 -98 -3 1 -49 74 -101 163 -121 206 -406 662 -580 925 l-133 204 260
261 c247 249 470 478 598 615 32 34 60 60 62 58 2 -2 -71 -406 -162 -897z
m1385 -3004 c16 -302 30 -562 30 -578 0 -18 -14 -42 -41 -72 -23 -25 -45 -45
-49 -45 -4 0 -28 45 -53 100 l-46 99 29 443 c16 244 36 556 45 693 9 138 18
275 22 305 7 60 7 64 63 -945z m44 -791 c4 -69 5 -128 3 -130 -2 -2 -23 39
-47 92 l-43 95 33 34 c19 19 37 35 41 35 3 0 9 -57 13 -126z"/>
</g>
</svg>
